<svg id="visual" viewBox="0 0 900 450" width="900" height="450" xmlns="http://www.w3.org/2000/svg" xmlns:xlink="http://www.w3.org/1999/xlink" version="1.1"><rect x="0" y="0" width="900" height="450" fill="#bdcfe4"></rect><path d="M0 232L25 238.5C50 245 100 258 150 257.3C200 256.7 250 242.3 300 237.7C350 233 400 238 450 244.5C500 251 550 259 600 254.8C650 250.7 700 234.3 750 232.3C800 230.3 850 242.7 875 248.8L900 255L900 451L875 451C850 451 800 451 750 451C700 451 650 451 600 451C550 451 500 451 450 451C400 451 350 451 300 451C250 451 200 451 150 451C100 451 50 451 25 451L0 451Z" fill="#098efa"></path><path d="M0 246L25 248.5C50 251 100 256 150 259C200 262 250 263 300 267.5C350 272 400 280 450 284.2C500 288.3 550 288.7 600 282.7C650 276.7 700 264.3 750 266.3C800 268.3 850 284.7 875 292.8L900 301L900 451L875 451C850 451 800 451 750 451C700 451 650 451 600 451C550 451 500 451 450 451C400 451 350 451 300 451C250 451 200 451 150 451C100 451 50 451 25 451L0 451Z" fill="#1275d9"></path><path d="M0 316L25 308C50 300 100 284 150 286.2C200 288.3 250 308.7 300 315.2C350 321.7 400 314.3 450 305.5C500 296.7 550 286.3 600 285.3C650 284.3 700 292.7 750 296.3C800 300 850 299 875 298.5L900 298L900 451L875 451C850 451 800 451 750 451C700 451 650 451 600 451C550 451 500 451 450 451C400 451 350 451 300 451C250 451 200 451 150 451C100 451 50 451 25 451L0 451Z" fill="#115db8"></path><path d="M0 329L25 328.7C50 328.3 100 327.7 150 338.2C200 348.7 250 370.3 300 369.7C350 369 400 346 450 341.5C500 337 550 351 600 356.5C650 362 700 359 750 354.7C800 350.3 850 344.7 875 341.8L900 339L900 451L875 451C850 451 800 451 750 451C700 451 650 451 600 451C550 451 500 451 450 451C400 451 350 451 300 451C250 451 200 451 150 451C100 451 50 451 25 451L0 451Z" fill="#0a4698"></path><path d="M0 386L25 387.3C50 388.7 100 391.3 150 393.3C200 395.3 250 396.7 300 397.2C350 397.7 400 397.3 450 396.7C500 396 550 395 600 399.8C650 404.7 700 415.3 750 418.3C800 421.3 850 416.7 875 414.3L900 412L900 451L875 451C850 451 800 451 750 451C700 451 650 451 600 451C550 451 500 451 450 451C400 451 350 451 300 451C250 451 200 451 150 451C100 451 50 451 25 451L0 451Z" fill="#003079"></path></svg>