<?xml version="1.0" standalone="no"?>
<!DOCTYPE svg PUBLIC "-//W3C//DTD SVG 20010904//EN"
 "http://www.w3.org/TR/2001/REC-SVG-20010904/DTD/svg10.dtd">
<svg version="1.0" xmlns="http://www.w3.org/2000/svg"
 width="483.000000pt" height="482.000000pt" viewBox="0 0 483.000000 482.000000"
 preserveAspectRatio="xMidYMid meet">

<g transform="translate(0.000000,482.000000) scale(0.100000,-0.100000)"
fill="#000000" stroke="none">
<path d="M1755 3413 c-132 -113 -242 -210 -243 -215 -4 -10 44 -58 58 -58 4 0
100 102 212 228 185 206 225 253 216 251 -2 0 -111 -93 -243 -206z"/>
<path d="M1534 3395 c-64 -75 -115 -137 -113 -139 19 -15 55 -36 60 -36 4 0
44 66 89 148 46 81 85 150 87 155 16 28 -22 -11 -123 -128z"/>
<path d="M1031 3447 c-16 -65 -14 -74 15 -80 26 -5 26 -5 20 46 -11 77 -21 87
-35 34z"/>
<path d="M1267 3415 l-37 -75 26 -6 c17 -4 29 -2 34 6 9 14 24 139 18 145 -2
3 -21 -29 -41 -70z"/>
<path d="M1395 3398 c-57 -86 -58 -91 -40 -104 11 -8 23 -13 28 -11 10 3 79
187 74 199 -1 4 -29 -34 -62 -84z"/>
<path d="M910 3410 l0 -60 28 6 c15 4 28 7 28 8 5 4 -40 106 -47 106 -5 0 -9
-27 -9 -60z"/>
<path d="M1146 3420 c-20 -56 -20 -55 12 -64 21 -7 22 -5 22 53 0 34 -4 61 -8
61 -4 0 -16 -23 -26 -50z"/>
<path d="M794 3396 c4 -33 9 -62 11 -64 2 -3 16 -1 30 2 l26 7 -27 47 c-42 73
-47 74 -40 8z"/>
<path d="M674 3385 c28 -114 26 -112 63 -92 23 13 23 13 -22 62 -29 32 -44 43
-41 30z"/>
<path d="M584 3278 c26 -59 33 -64 61 -42 19 15 19 16 -25 54 -25 22 -48 40
-52 40 -4 0 3 -23 16 -52z"/>
<path d="M965 3259 c-133 -20 -244 -76 -340 -174 -112 -114 -166 -246 -166
-405 0 -113 15 -183 60 -274 l36 -71 90 -2 c50 -1 112 -9 140 -17 42 -13 51
-13 57 -2 20 36 91 117 130 148 57 47 111 73 199 98 83 23 139 25 223 9 55
-10 59 -9 92 18 20 15 61 44 92 64 l57 36 -3 49 c-7 104 -70 245 -153 337 -54
61 -167 136 -239 160 -40 14 -190 39 -208 36 -4 -1 -34 -5 -67 -10z"/>
<path d="M480 3224 c13 -21 29 -47 34 -56 13 -22 30 -23 47 -2 12 14 10 19
-14 38 -15 12 -41 30 -59 40 l-32 19 24 -39z"/>
<path d="M1735 3184 c-82 -43 -139 -79 -137 -86 2 -7 12 -22 22 -32 17 -18 21
-18 37 -5 10 9 61 51 113 94 160 132 159 133 -35 29z"/>
<path d="M380 3155 c0 -13 83 -94 91 -89 5 3 14 14 19 24 9 17 5 22 -27 36
-66 28 -83 34 -83 29z"/>
<path d="M350 3011 c51 -46 58 -48 76 -23 20 26 18 29 -33 41 -27 7 -57 14
-68 17 -13 3 -4 -10 25 -35z"/>
<path d="M1708 3033 c-55 -14 -56 -16 -46 -39 15 -32 25 -30 78 16 50 44 49
44 -32 23z"/>
<path d="M2205 2974 c-9 -10 -13 -23 -9 -33 20 -48 18 -50 -21 -38 -30 9 -38
8 -46 -4 -17 -27 -4 -44 63 -76 55 -26 70 -39 83 -69 22 -53 20 -56 -32 -48
-55 7 -73 20 -111 81 -19 30 -34 43 -50 43 -31 0 -39 -26 -18 -61 l17 -29 -40
0 c-31 0 -41 -4 -46 -20 -8 -25 10 -50 36 -50 26 0 33 -17 10 -29 -11 -7 -55
-8 -112 -5 -156 11 -267 -29 -384 -137 l-60 -55 -60 19 c-118 37 -275 7 -380
-72 -58 -44 -128 -141 -146 -202 -13 -42 -28 -49 -50 -23 -27 33 -93 57 -169
62 -137 8 -234 -51 -293 -176 -27 -57 -29 -71 -25 -141 2 -42 8 -83 12 -89 5
-9 161 -12 636 -12 l630 0 -40 -62 c-43 -66 -46 -78 -28 -96 18 -18 41 -15 67
9 20 19 22 29 19 85 l-3 64 164 0 163 0 -15 -22 c-51 -72 -69 -112 -60 -127
15 -24 49 -25 73 -1 19 19 21 31 18 86 l-3 64 163 0 c89 0 162 -3 162 -6 0 -3
-12 -20 -27 -38 -14 -17 -32 -44 -39 -61 -24 -57 23 -88 67 -44 17 17 20 30
17 85 l-3 64 163 0 c89 0 162 -3 162 -6 0 -3 -13 -22 -29 -42 -42 -52 -53 -85
-36 -108 11 -15 18 -17 42 -9 41 15 57 56 46 116 l-10 49 49 0 c43 0 50 3 59
26 37 99 11 219 -64 296 -76 78 -138 93 -312 76 -28 -3 -30 -1 -37 44 -7 42
-6 49 17 72 14 14 25 30 25 36 0 20 20 9 35 -20 17 -33 36 -38 55 -15 9 11 9
22 2 44 l-10 30 41 -2 c38 -2 42 0 45 24 3 24 -3 29 -64 55 -60 25 -68 33 -85
72 -11 25 -17 47 -15 50 3 2 26 1 51 -2 42 -7 50 -13 88 -67 30 -42 48 -58 62
-57 27 4 31 40 8 74 l-17 27 34 -6 c43 -8 63 3 58 33 -2 16 -14 27 -38 35
l-34 12 27 18 c19 12 27 25 25 39 -5 35 -43 31 -100 -9 -46 -34 -55 -37 -96
-31 -25 3 -47 8 -50 10 -2 3 9 20 24 40 27 33 32 35 106 42 64 5 78 10 84 26
8 26 -13 48 -47 48 l-28 0 20 34 c18 31 18 35 4 50 -21 21 -28 20 -50 -4 -26
-29 -43 -25 -47 13 -2 27 -7 32 -28 32 -24 0 -25 -2 -28 -81 -3 -79 -3 -81
-42 -119 l-39 -38 -22 49 c-23 53 -24 46 22 161 10 25 10 34 0 47 -20 24 -39
19 -56 -14 -19 -37 -26 -37 -47 0 -19 34 -30 37 -53 14z m38 -340 c20 -3 37
-9 37 -12 0 -15 -66 -72 -82 -72 -19 0 -98 36 -98 45 0 11 76 54 90 50 8 -2
32 -7 53 -11z m121 -104 c9 -22 16 -47 16 -54 0 -26 -40 -107 -49 -101 -14 8
-71 94 -71 106 0 16 62 89 76 89 6 0 19 -18 28 -40z"/>
<path d="M260 2926 c0 -7 111 -69 115 -65 2 2 6 16 10 30 6 25 4 26 -41 33
-54 7 -84 8 -84 2z"/>
<path d="M1732 2923 c-31 -4 -33 -7 -27 -31 4 -15 8 -29 10 -31 4 -4 115 58
115 65 0 4 -47 3 -98 -3z"/>
<path d="M4045 2826 c-132 -25 -247 -101 -295 -196 -75 -147 -81 -428 -11
-584 42 -97 149 -180 272 -212 87 -23 255 -23 334 0 169 50 253 131 301 291
23 76 26 302 5 385 -52 208 -196 314 -441 325 -57 3 -123 -1 -165 -9z m203
-236 c21 -20 22 -27 22 -261 l0 -240 -25 -24 c-27 -28 -76 -33 -119 -13 -39
17 -46 61 -46 280 0 254 9 278 100 278 33 0 53 -6 68 -20z"/>
<path d="M3152 2728 l3 -103 28 -3 27 -3 0 -295 0 -294 -30 0 -30 0 0 -105 0
-105 238 2 237 3 3 102 3 102 -33 3 -33 3 -3 292 -2 292 32 3 33 3 3 103 3
102 -241 0 -241 0 3 -102z"/>
<path d="M236 2801 c15 -15 111 -50 118 -44 3 4 6 17 6 30 0 22 -3 23 -67 23
-41 0 -63 -4 -57 -9z"/>
<path d="M1730 2786 c0 -14 4 -27 9 -30 10 -7 121 36 121 47 0 4 -29 7 -65 7
-62 0 -65 -1 -65 -24z"/>
<path d="M255 2686 l-50 -12 55 -13 c30 -7 63 -15 73 -18 13 -3 17 2 17 26 0
35 -10 37 -95 17z"/>
<path d="M280 2567 l-55 -21 40 -7 c22 -5 52 -8 68 -8 24 -1 27 3 27 29 0 35
-7 36 -80 7z"/>
<path d="M335 2466 c-11 -7 -35 -22 -54 -33 l-34 -21 69 5 c38 3 70 7 72 8 2
2 0 14 -4 29 -7 29 -19 32 -49 12z"/>
<path d="M358 2343 c-26 -21 -47 -41 -48 -45 0 -6 107 19 122 28 8 5 -11 54
-21 54 -3 0 -27 -17 -53 -37z"/>
<path d="M2860 1925 l0 -106 93 3 92 3 3 103 3 102 -96 0 -95 0 0 -105z"/>
<path d="M1726 1604 c-43 -64 -44 -104 -3 -104 37 0 67 40 67 87 0 45 -8 73
-20 73 -4 0 -24 -25 -44 -56z"/>
<path d="M2066 1605 c-39 -59 -43 -74 -24 -93 36 -36 88 7 88 72 0 47 -7 76
-20 76 -4 0 -24 -25 -44 -55z"/>
<path d="M2407 1604 c-20 -31 -37 -62 -37 -69 0 -40 70 -43 90 -5 13 25 9 122
-5 127 -6 2 -27 -22 -48 -53z"/>
<path d="M1850 1449 c-45 -70 -46 -72 -24 -93 20 -21 26 -20 58 5 23 18 26 28
26 79 0 32 -4 62 -10 65 -5 3 -28 -22 -50 -56z"/>
<path d="M2191 1449 c-23 -34 -41 -65 -41 -69 0 -9 28 -40 35 -40 18 0 55 27
64 47 12 26 5 123 -9 123 -5 0 -27 -28 -49 -61z"/>
<path d="M2537 1458 c-45 -66 -51 -100 -22 -112 23 -8 61 13 74 41 12 26 5
123 -9 123 -4 0 -24 -24 -43 -52z"/>
<path d="M1641 1312 c-44 -65 -48 -81 -29 -100 37 -37 88 12 88 84 0 81 -12
84 -59 16z"/>
<path d="M1997 1337 c-45 -59 -62 -104 -47 -122 17 -21 42 -19 68 5 17 16 22
32 22 73 0 75 -11 86 -43 44z"/>
<path d="M2321 1309 c-44 -66 -48 -78 -29 -97 18 -18 41 -15 66 8 18 17 22 32
22 80 0 32 -4 61 -9 64 -5 4 -28 -21 -50 -55z"/>
</g>
</svg>
